<svg width="40" height="40" viewBox="0 0 40 40" fill="none" xmlns="http://www.w3.org/2000/svg">
<rect x="0.5" y="0.5" width="39" height="39" rx="7.5" fill="#219653"/>
<path d="M27.25 16.25V25.25C27.25 26.3546 26.3546 27.25 25.25 27.25H14.75C13.6454 27.25 12.75 26.3546 12.75 25.25V14.75" stroke="white" stroke-width="1.5" stroke-linecap="round" stroke-linejoin="round"/>
<path d="M24.5 21C24.5 21.2761 24.2761 21.5 24 21.5C23.7239 21.5 23.5 21.2761 23.5 21C23.5 20.7239 23.7239 20.5 24 20.5C24.2761 20.5 24.5 20.7239 24.5 21Z" stroke="white" stroke-width="1.5" stroke-linecap="round" stroke-linejoin="round"/>
<path d="M25.25 16.25H27.25M25.25 16.25H14.5C13.5335 16.25 12.75 15.4665 12.75 14.5C12.75 13.5335 13.5335 12.75 14.5 12.75H23.25C24.3546 12.75 25.25 13.6454 25.25 14.75V16.25Z" stroke="white" stroke-width="1.5" stroke-linecap="round" stroke-linejoin="round"/>
<rect x="0.5" y="0.5" width="39" height="39" rx="7.5" stroke="#27AE60"/>
</svg>
