<svg width="40" height="40" viewBox="0 0 40 40" fill="none" xmlns="http://www.w3.org/2000/svg">
<rect x="0.5" y="0.5" width="39" height="39" rx="7.5" fill="#FFF5ED"/>
<path d="M20 19.25C21.7949 19.25 23.25 17.7949 23.25 16C23.25 14.2051 21.7949 12.75 20 12.75C18.2051 12.75 16.75 14.2051 16.75 16C16.75 17.7949 18.2051 19.25 20 19.25Z" stroke="#F2994A" stroke-width="1.5" stroke-linecap="round" stroke-linejoin="round"/>
<path d="M14.8475 27.25H25.1525C26.2944 27.25 27.174 26.2681 26.6408 25.2584C25.8563 23.7731 24.068 22 20 22C15.932 22 14.1436 23.7731 13.3592 25.2584C12.8259 26.2681 13.7056 27.25 14.8475 27.25Z" stroke="#F2994A" stroke-width="1.5" stroke-linecap="round" stroke-linejoin="round"/>
<rect x="0.5" y="0.5" width="39" height="39" rx="7.5" stroke="#F2994A"/>
</svg>
