<svg width="40" height="40" viewBox="0 0 40 40" fill="none" xmlns="http://www.w3.org/2000/svg">
<rect x="0.5" y="0.5" width="39" height="39" rx="7.5" fill="#F5EBFF"/>
<path d="M14.7502 27.2502H25.2502C26.3548 27.2502 27.2502 26.3548 27.2502 25.2502V16.1832C27.2502 15.8977 27.1891 15.6155 27.071 15.3556L26.5332 14.1724C26.2086 13.4584 25.4967 13 24.7124 13H15.2881C14.5038 13 13.7919 13.4584 13.4673 14.1724L12.9295 15.3556C12.8114 15.6155 12.7502 15.8977 12.7502 16.1832V25.2502C12.7502 26.3548 13.6457 27.2502 14.7502 27.2502Z" stroke="#833AB4" stroke-width="1.5" stroke-linecap="round" stroke-linejoin="round"/>
<path d="M17.5 15.75C17.5 16.9926 16.5 18.25 15 18.25C13.5 18.25 12.75 16.9926 12.75 15.75" stroke="#833AB4" stroke-width="1.5" stroke-linecap="round" stroke-linejoin="round"/>
<path d="M27.25 15.75C27.25 16.9926 26.5 18.25 25 18.25C23.5 18.25 22.5 16.9926 22.5 15.75" stroke="#833AB4" stroke-width="1.5" stroke-linecap="round" stroke-linejoin="round"/>
<path d="M22.5 15.75C22.5 16.9926 21.5 18.25 20 18.25C18.5 18.25 17.5 16.9926 17.5 15.75" stroke="#833AB4" stroke-width="1.5" stroke-linecap="round" stroke-linejoin="round"/>
<path d="M17.7496 23.7493C17.7496 22.6447 18.6451 21.7493 19.7496 21.7493H20.2496C21.3542 21.7493 22.2496 22.6447 22.2496 23.7493V27.2493H17.7496V23.7493Z" stroke="#833AB4" stroke-width="1.5" stroke-linecap="round" stroke-linejoin="round"/>
<rect x="0.5" y="0.5" width="39" height="39" rx="7.5" stroke="#9B51E0"/>
</svg>
